<svg width="22" height="20" viewBox="0 0 22 20" fill="none" xmlns="http://www.w3.org/2000/svg">
<path fill-rule="evenodd" clip-rule="evenodd" d="M7.75 3.3C7.75 2.02975 8.77975 1 10.05 1H11.95C13.2203 1 14.25 2.02975 14.25 3.3V6.62029L11.3997 6.29266C11.1341 6.26214 10.8659 6.26214 10.6003 6.29266L7.75 6.62029V3.3ZM6.75256 6.73494C6.75087 6.71818 6.75 6.70119 6.75 6.68399V3.3C6.75 1.47746 8.22746 0 10.05 0H11.95C13.7725 0 15.25 1.47746 15.25 3.3V6.68399C15.25 6.70119 15.2491 6.71818 15.2474 6.73494L15.8997 6.8099C17.6664 7.01298 19 8.50864 19 10.287V15.4299C19 17.1335 17.7735 18.5896 16.0947 18.879L11.5947 19.6549C11.2011 19.7227 10.7989 19.7227 10.4053 19.6549L5.90532 18.879C4.22655 18.5896 3 17.1335 3 15.4299V10.287C3 8.50865 4.3336 7.01298 6.10033 6.8099L6.75256 6.73494ZM10.7145 7.28612C10.9042 7.26432 11.0958 7.26432 11.2855 7.28612L15.7855 7.80336C17.0474 7.94842 18 9.01675 18 10.287V15.4299C18 16.6467 17.1239 17.6868 15.9248 17.8936L11.4248 18.6694C11.1437 18.7179 10.8563 18.7179 10.5752 18.6694L6.07523 17.8936C4.87611 17.6868 4 16.6467 4 15.4299V10.287C4 9.01675 4.95257 7.94842 6.21452 7.80336L10.7145 7.28612ZM11.4855 12.8802C11.8163 12.7057 12.0417 12.3584 12.0417 11.9584C12.0417 11.3831 11.5753 10.9167 11 10.9167C10.4247 10.9167 9.95837 11.3831 9.95837 11.9584C9.95837 12.3583 10.1838 12.7056 10.5145 12.8802C10.505 12.9186 10.5 12.9588 10.5 13.0001V15.0834C10.5 15.3596 10.7239 15.5834 11 15.5834C11.2761 15.5834 11.5 15.3596 11.5 15.0834V13.0001C11.5 12.9588 11.495 12.9186 11.4855 12.8802Z" fill="black"/>
</svg>
