<svg width="22" height="20" viewBox="0 0 22 20" fill="none" xmlns="http://www.w3.org/2000/svg">
<path d="M10.6671 1.02447C10.7719 0.702009 11.2281 0.702009 11.3329 1.02447L13.1666 6.66799C13.2134 6.81219 13.3478 6.90983 13.4994 6.90983H19.4334C19.7724 6.90983 19.9134 7.3437 19.6391 7.54299L14.8384 11.0309C14.7158 11.12 14.6644 11.278 14.7113 11.4222L16.545 17.0657C16.6498 17.3882 16.2807 17.6563 16.0064 17.457L11.2057 13.9691C11.0831 13.88 10.9169 13.88 10.7943 13.9691L5.99361 17.457C5.71931 17.6563 5.35024 17.3882 5.45502 17.0657L7.28871 11.4222C7.33556 11.278 7.28423 11.12 7.16156 11.0309L2.3609 7.54299C2.0866 7.3437 2.22757 6.90983 2.56662 6.90983H8.50057C8.6522 6.90983 8.78658 6.81219 8.83344 6.66799L10.6671 1.02447Z" stroke="black"/>
</svg>
