<svg width="22" height="20" viewBox="0 0 22 20" fill="none" xmlns="http://www.w3.org/2000/svg">
<path fill-rule="evenodd" clip-rule="evenodd" d="M0 6.46286C0 3.99809 1.99809 2 4.46286 2H17.5371C20.0019 2 22 3.99809 22 6.46286V14.5086C22 16.9733 20.0019 18.9714 17.5371 18.9714H4.46286C1.99809 18.9714 0 16.9733 0 14.5086V6.46286ZM4.42571 3C2 3 1 5.03097 1 6.45429V14.5C1 15.9233 2 18 4.42571 18H17.5C20 18 21 15.9319 21 14.5086V6.46286C21 5.03954 20 3 17.5 3H4.42571Z" fill="black"/>
<path d="M1 4L10.7714 11L20.5 4" stroke="black"/>
</svg>
